<?xml version="1.0" encoding="iso-8859-1"?>
<!-- Generator: Adobe Illustrator 19.0.0, SVG Export Plug-In . SVG Version: 6.00 Build 0)  -->
<svg version="1.1" id="Layer_1" xmlns="http://www.w3.org/2000/svg" xmlns:xlink="http://www.w3.org/1999/xlink" x="0px" y="0px"
	 viewBox="0 0 512 512" style="enable-background:new 0 0 512 512;" xml:space="preserve">
<circle style="fill:#273B7A;" cx="256" cy="256" r="256"/>
<path style="fill:#121149;" d="M307.662,506.783c98.609-20.208,176.535-97.118,198.259-195.163L349.875,149.166l-8.614,53.896
	l-29.377-38.86l-15.946,4.31l-40.943-19.825l-74.99,56.889l-28.444,62.923l62.342,62.342l-58.323,25.871L307.662,506.783z"/>
<path style="fill:#71E2EF;" d="M256,113.778c-78.546,0-142.222,63.674-142.222,142.222c0,78.546,63.676,142.222,142.222,142.222
	S398.222,334.546,398.222,256C398.222,177.452,334.546,113.778,256,113.778z M256,327.111c-39.274,0-71.111-31.837-71.111-71.111
	s31.837-71.111,71.111-71.111s71.111,31.837,71.111,71.111S295.274,327.111,256,327.111z"/>
<path style="fill:#38C6D9;" d="M398.222,256c0-78.546-63.674-142.222-142.222-142.222v71.111c39.272,0,71.111,31.837,71.111,71.111
	S295.274,327.111,256,327.111v71.111C334.548,398.222,398.222,334.546,398.222,256z"/>
<g>
	<rect x="227.556" y="109.899" style="fill:#FF6262;" width="56.889" height="85.333"/>
	<rect x="227.556" y="316.768" style="fill:#FF6262;" width="56.889" height="85.333"/>
</g>
<g>
	<rect x="256" y="109.899" style="fill:#FF314F;" width="28.444" height="85.333"/>
	<rect x="256" y="316.768" style="fill:#FF314F;" width="28.444" height="85.333"/>
	<rect x="316.768" y="227.556" style="fill:#FF314F;" width="85.333" height="56.889"/>
</g>
<rect x="109.899" y="227.556" style="fill:#FF6262;" width="85.333" height="56.889"/>
<g>
</g>
<g>
</g>
<g>
</g>
<g>
</g>
<g>
</g>
<g>
</g>
<g>
</g>
<g>
</g>
<g>
</g>
<g>
</g>
<g>
</g>
<g>
</g>
<g>
</g>
<g>
</g>
<g>
</g>
</svg>
