<svg data-v-423bf9ae="" xmlns="http://www.w3.org/2000/svg" viewBox="0 0 210.87057892514554 60" class="font"><!----><!----><!----><g data-v-423bf9ae="" id="25f0ba9d-5168-4535-bf71-55358ad89bae" fill="white" transform="matrix(4.705882000950682,0,0,4.705882000950682,-0.4705867593765589,-31.905879186676714)"><path d="M4.61 10.46L4.61 17.18L2.14 17.18L2.14 10.46L0.10 10.46L0.10 8.43L6.65 8.43L6.65 10.46L4.61 10.46ZM8.82 10.18L9.52 11.14L9.52 11.14Q10.46 10.23 11.56 9.97L11.56 9.97L11.72 12.36L11.72 12.36Q11.35 12.42 10.84 12.62L10.84 12.62L10.84 12.62Q10.32 12.82 10.07 13.01L10.07 13.01L10.07 17.18L7.60 17.18L7.60 10.18L8.82 10.18ZM12.54 17.18L12.54 17.18ZM12.66 10.47L15.12 10.15L15.12 17.18L12.66 17.18L12.66 10.47ZM13.87 9.44L13.87 9.44Q13.34 9.44 13.06 9.32L13.06 9.32L13.06 9.32Q12.78 9.21 12.66 8.93L12.66 8.93L12.66 8.93Q12.54 8.65 12.54 8.12L12.54 8.12L12.54 8.12Q12.54 7.35 12.82 7.06L12.82 7.06L12.82 7.06Q13.10 6.78 13.87 6.78L13.87 6.78L13.87 6.78Q14.64 6.78 14.92 7.06L14.92 7.06L14.92 7.06Q15.20 7.35 15.20 8.12L15.20 8.12L15.20 8.12Q15.20 8.89 14.92 9.16L14.92 9.16L14.92 9.16Q14.64 9.44 13.87 9.44L13.87 9.44ZM20.78 9.98L20.78 9.98Q21.83 9.98 22.46 10.35L22.46 10.35L22.46 10.35Q23.09 10.72 23.38 11.53L23.38 11.53L23.38 11.53Q23.67 12.33 23.67 13.68L23.67 13.68L23.67 13.68Q23.67 15.02 23.38 15.83L23.38 15.83L23.38 15.83Q23.09 16.65 22.46 17.02L22.46 17.02L22.46 17.02Q21.83 17.39 20.78 17.39L20.78 17.39L20.78 17.39Q19.84 17.39 19.25 17.12L19.25 17.12L19.25 19.33L16.79 19.53L16.79 10.18L18.00 10.18L18.47 10.85L18.47 10.85Q18.82 10.40 19.39 10.19L19.39 10.19L19.39 10.19Q19.96 9.98 20.78 9.98L20.78 9.98ZM21.03 15.13L21.03 11.86L19.82 11.86L19.82 11.86Q19.49 11.86 19.37 11.94L19.37 11.94L19.37 11.94Q19.25 12.01 19.25 12.22L19.25 12.22L19.25 15.51L20.47 15.51L20.47 15.51Q20.79 15.51 20.91 15.44L20.91 15.44L20.91 15.44Q21.03 15.36 21.03 15.13L21.03 15.13ZM24.96 14.90L24.96 14.90Q26.33 15.32 27.78 15.32L27.78 15.32L27.78 15.32Q28.50 15.32 29.02 15.23L29.02 15.23L29.02 14.03L27.75 13.92L27.75 13.92Q26.61 13.82 25.96 13.53L25.96 13.53L25.96 13.53Q25.31 13.24 25.02 12.71L25.02 12.71L25.02 12.71Q24.74 12.17 24.74 11.26L24.74 11.26L24.74 11.26Q24.74 10.12 25.05 9.46L25.05 9.46L25.05 9.46Q25.37 8.81 26.08 8.51L26.08 8.51L26.08 8.51Q26.80 8.22 28.03 8.22L28.03 8.22L28.03 8.22Q29.65 8.22 31.21 8.60L31.21 8.60L30.90 10.57L30.90 10.57Q30.18 10.43 29.66 10.37L29.66 10.37L29.66 10.37Q29.13 10.30 28.56 10.30L28.56 10.30L28.56 10.30Q27.85 10.30 27.38 10.37L27.38 10.37L27.38 11.58L28.53 11.68L28.53 11.68Q30.21 11.83 30.94 12.48L30.94 12.48L30.94 12.48Q31.67 13.13 31.67 14.49L31.67 14.49L31.67 14.49Q31.67 16.02 30.82 16.70L30.82 16.70L30.82 16.70Q29.97 17.39 28.07 17.39L28.07 17.39L28.07 17.39Q26.21 17.39 24.61 16.93L24.61 16.93L24.96 14.90ZM36.33 15.55L36.33 15.55Q37.52 15.55 38.81 15.19L38.81 15.19L39.12 16.91L39.12 16.91Q37.73 17.37 36.06 17.37L36.06 17.37L36.06 17.37Q34.22 17.37 33.40 16.51L33.40 16.51L33.40 16.51Q32.59 15.65 32.59 13.68L32.59 13.68L32.59 13.68Q32.59 11.72 33.42 10.85L33.42 10.85L33.42 10.85Q34.26 9.98 36.12 9.98L36.12 9.98L36.12 9.98Q37.37 9.98 38.05 10.19L38.05 10.19L38.05 10.19Q38.72 10.40 39.01 10.89L39.01 10.89L39.01 10.89Q39.30 11.38 39.30 12.29L39.30 12.29L39.30 12.29Q39.30 13.19 38.93 13.68L38.93 13.68L38.93 13.68Q38.57 14.17 37.70 14.38L37.70 14.38L37.70 14.38Q36.83 14.59 35.24 14.59L35.24 14.59L35.24 15.47L35.24 15.47Q35.63 15.55 36.33 15.55L36.33 15.55ZM36.25 11.80L36.25 11.80Q35.67 11.80 35.45 11.93L35.45 11.93L35.45 11.93Q35.24 12.05 35.24 12.40L35.24 12.40L35.24 13.30L36.06 13.30L36.06 13.30Q36.64 13.30 36.85 13.17L36.85 13.17L36.85 13.17Q37.07 13.03 37.07 12.67L37.07 12.67L37.07 11.80L36.25 11.80ZM42.01 10.18L42.71 11.14L42.71 11.14Q43.65 10.23 44.76 9.97L44.76 9.97L44.91 12.36L44.91 12.36Q44.55 12.42 44.03 12.62L44.03 12.62L44.03 12.62Q43.51 12.82 43.26 13.01L43.26 13.01L43.26 17.18L40.80 17.18L40.80 10.18L42.01 10.18Z"></path></g><!----><!----></svg>